<?xml version="1.0" standalone="no"?>
<!DOCTYPE svg PUBLIC "-//W3C//DTD SVG 20010904//EN"
 "http://www.w3.org/TR/2001/REC-SVG-20010904/DTD/svg10.dtd">
<svg version="1.0" xmlns="http://www.w3.org/2000/svg"
 width="648.000000pt" height="1280.000000pt" viewBox="0 0 648.000000 1280.000000"
 preserveAspectRatio="xMidYMid meet">
<g transform="translate(0.000000,1280.000000) scale(0.100000,-0.100000)"
fill="#000000" stroke="none">
<path d="M1713 12773 c-107 -42 -173 -122 -193 -235 -5 -29 -112 -861 -236
-1848 l-227 -1795 -121 -126 c-523 -540 -828 -1189 -911 -1941 -33 -296 -32
-363 11 -723 52 -428 204 -867 428 -1238 137 -227 254 -382 457 -600 60 -64
109 -124 109 -132 0 -23 478 -3802 489 -3867 20 -120 85 -199 199 -242 l67
-26 1510 0 c1626 0 1532 -3 1634 50 46 23 108 90 128 139 11 24 83 665 229
2025 l212 1989 59 61 c466 480 783 1118 877 1766 57 389 54 635 -9 1016 -108
643 -405 1231 -860 1704 -85 88 -92 99 -98 145 -4 28 -92 858 -197 1845 -112
1060 -197 1817 -206 1849 -23 79 -105 158 -194 189 l-65 22 -1515 -1 -1515 -1
-62 -25z m1947 -3347 c617 -98 1162 -365 1599 -781 802 -765 1110 -1893 805
-2947 -245 -844 -874 -1553 -1684 -1896 -225 -95 -471 -164 -730 -203 -214
-33 -600 -33 -820 0 -1092 163 -1990 899 -2362 1935 -280 780 -206 1673 199
2401 140 252 314 476 534 690 235 228 457 385 744 526 311 152 611 242 945
284 158 19 623 14 770 -9z"/>
<path d="M3145 9183 c-555 -16 -1113 -222 -1565 -579 -133 -105 -365 -344
-469 -484 -308 -413 -485 -874 -532 -1384 -14 -146 -6 -450 15 -591 121 -813
578 -1503 1277 -1926 582 -352 1278 -463 1959 -313 811 179 1523 769 1856
1538 143 331 209 627 221 987 24 755 -260 1459 -803 1989 -221 216 -426 361
-688 490 -409 199 -811 286 -1271 273z m435 -118 c466 -64 908 -255 1275 -552
120 -97 316 -296 407 -413 278 -358 448 -752 525 -1215 26 -158 26 -593 0
-748 -98 -579 -342 -1056 -746 -1457 -387 -384 -854 -619 -1421 -716 -147 -25
-523 -30 -680 -10 -485 64 -888 230 -1275 525 -112 86 -320 288 -411 401 -289
358 -473 763 -555 1227 -27 149 -37 498 -20 665 89 855 606 1620 1366 2019
318 167 664 266 1025 293 104 7 395 -3 510 -19z"/>
<path d="M4726 7605 c-15 -8 -71 -45 -125 -82 -1086 -752 -1355 -934 -1370
-930 -9 2 -243 158 -519 347 -277 188 -517 349 -533 357 -38 19 -102 12 -138
-14 -60 -44 -78 -135 -38 -194 15 -23 195 -152 562 -402 297 -203 563 -382
590 -398 56 -32 101 -37 145 -14 46 24 1530 1051 1579 1093 42 35 45 41 49 98
4 54 1 63 -23 92 -51 60 -119 78 -179 47z"/>
</g>
</svg>
